<svg xmlns="http://www.w3.org/2000/svg" viewBox="0 0 512 512" fill="none">
  <!-- Background circle -->
  <circle cx="256" cy="256" r="256" fill="#166534"/>
  <!-- Wrench -->
  <g transform="translate(256,256) rotate(-45) translate(-256,-256)">
    <path d="M310 130c-33.1 0-62.5 16-80.8 40.7l-4.2 5.7-90.6 90.6-5.7 4.2C104 289.5 88 318.9 88 352c0 50.2 40.8 91 91 91 33.1 0 62.5-16 80.8-40.7l4.2-5.7 90.6-90.6 5.7-4.2C385 283.5 401 254.1 401 221c0-50.2-40.8-91-91-91zm-131 272c-22.1 0-40-17.9-40-40s17.9-40 40-40 40 17.9 40 40-17.9 40-40 40z" fill="white" opacity="0.95"/>
  </g>
  <!-- Sharing arrows (circular) -->
  <path d="M152 108c0 0-60 20-80 80" stroke="white" stroke-width="14" stroke-linecap="round" fill="none" opacity="0.7"/>
  <polygon points="68,178 58,198 88,192" fill="white" opacity="0.7"/>
  <path d="M360 404c0 0 60-20 80-80" stroke="white" stroke-width="14" stroke-linecap="round" fill="none" opacity="0.7"/>
  <polygon points="444,334 454,314 424,320" fill="white" opacity="0.7"/>
</svg>
